<svg width="400px" xmlns="http://www.w3.org/2000/svg" xmlns:xlink="http://www.w3.org/1999/xlink" viewBox="0 0 306.94 235.48" version="1.0"><defs><linearGradient id="a"><stop style="stop-color:#b9793f" offset="0"/><stop style="stop-color:#704b27" offset="1"/></linearGradient><linearGradient id="b" y2="469.15" xlink:href="#a" gradientUnits="userSpaceOnUse" x2="261.12" gradientTransform="translate(311.3 -227.78)" y1="402.39" x1="226.34"/><linearGradient id="c" y2="452.26" xlink:href="#a" gradientUnits="userSpaceOnUse" x2="217.97" gradientTransform="translate(292.32 -183.18)" y1="617.2" x1="444.11"/><linearGradient id="d" y2="567.3" xlink:href="#a" gradientUnits="userSpaceOnUse" x2="630.61" gradientTransform="translate(266.7 -205.01)" y1="393.08" x1="637.95"/><linearGradient id="e" y2="612.57" xlink:href="#a" gradientUnits="userSpaceOnUse" x2="445.34" gradientTransform="translate(292.32 -183.18)" y1="503.91" x1="608.62"/><linearGradient id="f" y2="644.77" xlink:href="#a" gradientUnits="userSpaceOnUse" x2="440.25" gradientTransform="translate(292.32 -183.18)" y1="432.99" x1="380.83"/><linearGradient id="g" y2="674.25" xlink:href="#a" gradientUnits="userSpaceOnUse" x2="472.53" gradientTransform="translate(297.07 -238.22)" y1="569.84" x1="582.69"/><linearGradient id="h" y2="712.58" xlink:href="#a" gradientUnits="userSpaceOnUse" x2="345.65" gradientTransform="translate(297.79 -238.87)" y1="603.48" x1="352.16"/></defs><path d="m685.56 139.7-43.926-50.435-177.4 98.397 62.279 61.821c4.167-.193 160.06-110.65 159.05-109.78z" style="stroke-linejoin:round;fill-rule:evenodd;stroke:#000;stroke-width:5.5637;fill:url(#b)" transform="translate(-255.65 -31.94) scale(.57812)"/><path d="m736.44 405.23-1.804 54.725-224.34-165.04 2.402-52.954 223.74 163.27z" style="fill-rule:evenodd;fill:url(#c)" transform="translate(-255.65 -31.94) scale(.57812)"/><path d="M687.66 137.62c5.694-4.067 63.491-79.588 63.491-79.588l219.19 155.02-94.78 113.29" style="stroke-linejoin:round;fill-rule:evenodd;stroke:#000;stroke-linecap:round;stroke-width:5.5637;fill:url(#d)" transform="translate(-255.65 -31.94) scale(.57812)"/><path d="m736.13 403.95-2.353 56.094 169.25-113.13-.793-52.743-166.1 109.78z" style="fill-rule:evenodd;fill:url(#e)" transform="translate(-255.65 -31.94) scale(.57812)"/><path style="fill-rule:evenodd;fill:#fff;fill-opacity:.2" d="m862.07 355.24-2.737 25.104-56.23 34.924.621-21.699z" transform="translate(-255.65 -31.94) scale(.57812)"/><path d="m512.03 241.21 174.81-101.68L902.4 293.27 736.52 405.03 512.03 241.21z" style="stroke-linejoin:round;fill-rule:evenodd;stroke:#000;stroke-width:5.5637;fill:url(#f)" transform="translate(-255.65 -31.94) scale(.57812)"/><path d="m511.95 241.41-3.072 53.633" style="stroke:#000;stroke-linecap:round;stroke-width:5.5121;fill:none" transform="translate(-255.65 -31.94) scale(.57812)"/><path d="m737.95 404.17 46.47 1.892 168.44-110.15-50.357-3.337z" style="stroke-linejoin:round;fill-rule:evenodd;stroke:#000;stroke-linecap:round;stroke-width:5.5637;fill:url(#g)" transform="translate(-255.65 -31.94) scale(.57812)"/><path d="m514.88 239.9-69.901 36.41 220.93 164.3 73.999-37.144z" style="stroke-linejoin:round;fill-rule:evenodd;stroke:#000;stroke-width:5.564;fill:url(#h)" transform="translate(-255.65 -31.94) scale(.57812)"/><path d="m625.27 224.32 179.79 132.45" style="stroke:#000;stroke-width:5.5637;fill:none" transform="translate(-255.65 -31.94) scale(.57812)"/><path d="m771.85 426.41-1.19-12.441 10.643-4.454-20.65-6.034-18.388 23.226 9.903-3.612-.628 11.961 20.31-8.646z" style="fill-rule:evenodd;stroke:#000;stroke-width:1px;fill:#000" transform="translate(-255.65 -31.94) scale(.57812)"/><path d="m684 142.41 1.94 52.669-.39.668" style="stroke:#000;stroke-width:5.5637;fill:none" transform="translate(-255.65 -31.94) scale(.57812)"/><path style="stroke:#000;stroke-width:5.08;fill:none" d="m683.18 190.16 179.4 130.2" transform="translate(-255.65 -31.94) scale(.57812)"/><path d="m683.07 192.31-129.04 73.26" style="stroke:#000;stroke-width:5.5637;fill:none" transform="translate(-255.65 -31.94) scale(.57812)"/><path style="stroke:#000;stroke-width:5.7731;fill:none" d="m690.83 428.68 43.039 31.568" transform="translate(-255.65 -31.94) scale(.57812)"/><path d="M902.92 347.74 731.79 460.4" style="stroke:#000;stroke-linecap:round;stroke-width:4.1825;fill:none" transform="translate(-255.65 -31.94) scale(.57812)"/><path style="stroke:#000;stroke-width:4.2708;fill:none" d="m903.49 347.96-.354-21.063" transform="translate(-255.65 -31.94) scale(.57812)"/></svg>