<svg width="300" height="300" viewBox="0 0 24 24" xmlns="http://www.w3.org/2000/svg"><path d="M3.46530832 20.534679 15.2109027 8.78899174m-6.30341385.44220165c1.61854885 1.21392211 1.94656365 3.51009361.73264148 5.12864251-.1562025.2082682-.33401093.399093-.53030336.5693526l-.20233812.1632889c-1.61854888-1.2139222-1.94656364-3.5100937-.73264149-5.12864253.1562025-.20826819.33401094-.39909306.53030336-.56935263l.20233813-.16328885Zm2.93061665-2.93064198c1.6185489 1.21392215 1.9465636 3.5100936.7326415 5.12864249-.1562025.2082682-.334011.399093-.5303034.5693526l-.2023381.1632889c-1.6185489-1.2139222-1.94656366-3.51009363-.7326415-5.12864251a3.66331083 3.66331083 0 0 1 .5303034-.56935263l.2023381-.16328885Zm2.9306166-2.93064199c1.6185489 1.21392216 1.9465637 3.51009361.7326415 5.12864248a3.66331135 3.66331135 0 0 1-.5303034.56935264l-.2023381.16328885c-1.6185489-1.21392216-1.9465636-3.51009361-.7326415-5.12864248.1562025-.2082682.334011-.39909306.5303034-.56935264l.2023381-.16328885Zm5.8612333 5.86128397c-1.2138907 1.61853491-3.5100252 1.94656381-5.1285601.73267317a3.6632623 3.6632623 0 0 1-.5693785-.53032519l-.1632947-.20234798c1.2138907-1.61853488 3.5100252-1.94656383 5.1285601-.73267317a3.6632623 3.6632623 0 0 1 .5693785.53032519l.1632947.20234798Zm-2.9306166 2.93064201c-1.2138907 1.6185348-3.5100253 1.9465638-5.1285601.7326731-.2082787-.1562076-.3991123-.3340235-.5693785-.5303251l-.1632947-.202348c1.2138906-1.6185349 3.5100252-1.9465639 5.1285601-.7326732.2082786.1562076.3991122.3340235.5693784.5303252l.1632948.202348Zm-2.9306167 2.930642c-1.2138906 1.6185348-3.5100252 1.9465638-5.12856008.7326731-.20827863-.1562076-.39911226-.3340235-.56937845-.5303252l-.16329472-.2023479c1.21389065-1.6185349 3.51002525-1.9465639 5.12856015-.7326732.2082786.1562076.3991122.3340235.5693784.5303252l.1632947.202348Zm-8.86123325-2.861284c1.61854887 1.2139221 1.94656364 3.5100936.73264148 5.1286425-.1562025.2082682-.33401093.399093-.53030336.5693526l-.20233812.1632889c-1.61854888-1.2139222-1.94656364-3.5100937-.73264149-5.1286425.1562025-.2082682.33401094-.3990931.53030336-.5693527l.20233813-.1632888Zm5.86123325 5.861284c-1.2138906 1.6185348-3.51002521 1.9465638-5.12856008.7326731-.20827863-.1562076-.39911226-.3340235-.56937845-.5303252l-.16329472-.2023479c1.21389066-1.6185349 3.51002523-1.9465639 5.12856015-.7326732.2082786.1562076.3991122.3340235.5693784.5303252l.1632947.202348Zm8.9688285-14.82946255c.2861226 2.00287557-1.1055528 3.85843802-3.1083882 4.14455489a3.66329283 3.66329283 0 0 1-.7775879.02761236l-.2585475-.02765376c-.2861168-2.00283542 1.1055585-3.85839787 3.1083939-4.14451475.3436323-.04908989.6924976-.04908947 1.0361297.00000126Z" stroke="#000" fill="none" fill-rule="evenodd" stroke-linecap="round"/></svg>